<?xml version="1.0" encoding="utf-8"?>
<!-- Generator: Adobe Illustrator 24.1.1, SVG Export Plug-In . SVG Version: 6.00 Build 0)  -->
<svg version="1.1" id="Layer_1" xmlns="http://www.w3.org/2000/svg" xmlns:xlink="http://www.w3.org/1999/xlink" x="0px" y="0px"
	 viewBox="0 0 52 52" style="enable-background:new 0 0 52 52;" xml:space="preserve">
<style type="text/css">
	.st0{fill-rule:evenodd;clip-rule:evenodd;fill:#181616;}
</style>
<path class="st0" d="M26,5.72c-11.48,0-20.79,9.31-20.79,20.79c0,9.18,5.96,16.98,14.22,19.73c1.04,0.19,1.42-0.45,1.42-1
	c0-0.49-0.02-1.8-0.03-3.54c-5.78,1.26-7-2.79-7-2.79c-0.95-2.4-2.31-3.04-2.31-3.04c-1.89-1.29,0.14-1.26,0.14-1.26
	c2.09,0.15,3.18,2.14,3.18,2.14c1.85,3.18,4.87,2.26,6.05,1.73c0.19-1.34,0.73-2.26,1.32-2.78c-4.62-0.52-9.47-2.31-9.47-10.28
	c0-2.27,0.81-4.13,2.14-5.58c-0.21-0.53-0.93-2.64,0.2-5.5c0,0,1.75-0.56,5.72,2.13c1.66-0.46,3.44-0.69,5.2-0.7
	c1.77,0.01,3.54,0.24,5.2,0.7c3.97-2.69,5.71-2.13,5.71-2.13c1.13,2.86,0.42,4.98,0.21,5.5c1.33,1.45,2.14,3.31,2.14,5.58
	c0,7.99-4.86,9.74-9.49,10.26c0.75,0.64,1.41,1.91,1.41,3.85c0,2.78-0.03,5.02-0.03,5.7c0,0.56,0.37,1.2,1.43,1
	c8.25-2.75,14.21-10.54,14.21-19.72C46.79,15.03,37.48,5.72,26,5.72z"/>
</svg>
